<?xml version="1.0" encoding="UTF-8"?>
<svg xmlns="http://www.w3.org/2000/svg" xmlns:xlink="http://www.w3.org/1999/xlink" width="149pt" height="36pt" viewBox="0 0 149 36" version="1.1">
<g id="surface1">
<path style=" stroke:none;fill-rule:nonzero;fill:rgb(8.235294%,13.72549%,22.745098%);fill-opacity:1;" d="M 14.324219 32.65625 L 13.914062 32.429688 C 1.859375 25.847656 1.730469 20.03125 1.75 19.414062 L 1.75 5.539062 L 2.289062 5.324219 C 2.484375 5.246094 7.207031 3.382812 14.324219 3.382812 C 21.4375 3.382812 26.160156 5.246094 26.355469 5.324219 L 26.894531 5.539062 L 26.894531 19.414062 C 26.914062 20.03125 26.785156 25.847656 14.726562 32.429688 Z M 3.453125 6.71875 L 3.453125 19.496094 C 3.449219 19.53125 3.367188 24.601562 14.324219 30.707031 C 25.257812 24.609375 25.195312 19.546875 25.191406 19.496094 L 25.191406 6.71875 C 23.792969 6.253906 19.757812 5.089844 14.324219 5.089844 C 8.886719 5.089844 4.851562 6.253906 3.453125 6.71875 Z M 3.453125 6.71875 "/>
<path style=" stroke:none;fill-rule:nonzero;fill:rgb(8.235294%,13.72549%,22.745098%);fill-opacity:1;" d="M 19.574219 9.648438 C 19.503906 9.648438 19.429688 9.628906 19.367188 9.59375 C 17.632812 8.695312 16.132812 8.3125 14.335938 8.3125 C 12.546875 8.3125 10.847656 8.742188 9.304688 9.59375 C 9.085938 9.710938 8.816406 9.628906 8.691406 9.414062 C 8.574219 9.195312 8.65625 8.914062 8.871094 8.796875 C 10.550781 7.878906 12.394531 7.40625 14.335938 7.40625 C 16.257812 7.40625 17.941406 7.835938 19.78125 8.789062 C 20.007812 8.90625 20.089844 9.175781 19.972656 9.394531 C 19.890625 9.554688 19.738281 9.648438 19.574219 9.648438 Z M 6.648438 14.410156 C 6.558594 14.410156 6.46875 14.382812 6.386719 14.328125 C 6.179688 14.183594 6.132812 13.902344 6.277344 13.695312 C 7.171875 12.421875 8.3125 11.425781 9.667969 10.726562 C 12.503906 9.257812 16.132812 9.25 18.976562 10.71875 C 20.335938 11.414062 21.472656 12.40625 22.367188 13.664062 C 22.511719 13.867188 22.464844 14.15625 22.257812 14.300781 C 22.050781 14.445312 21.773438 14.398438 21.628906 14.191406 C 20.8125 13.046875 19.785156 12.152344 18.5625 11.523438 C 15.972656 10.195312 12.65625 10.195312 10.074219 11.535156 C 8.84375 12.171875 7.8125 13.078125 7 14.21875 C 6.929688 14.34375 6.792969 14.410156 6.648438 14.410156 Z M 12.292969 25.359375 C 12.175781 25.359375 12.058594 25.3125 11.976562 25.21875 C 11.191406 24.429688 10.765625 23.921875 10.164062 22.828125 C 9.539062 21.710938 9.214844 20.351562 9.214844 18.890625 C 9.214844 16.195312 11.507812 14 14.328125 14 C 17.144531 14 19.441406 16.195312 19.441406 18.890625 C 19.441406 19.144531 19.242188 19.34375 18.988281 19.34375 C 18.734375 19.34375 18.539062 19.144531 18.539062 18.890625 C 18.539062 16.695312 16.648438 14.90625 14.328125 14.90625 C 12.003906 14.90625 10.117188 16.695312 10.117188 18.890625 C 10.117188 20.195312 10.40625 21.402344 10.957031 22.382812 C 11.535156 23.425781 11.933594 23.867188 12.628906 24.578125 C 12.800781 24.757812 12.800781 25.039062 12.628906 25.21875 C 12.53125 25.3125 12.410156 25.359375 12.292969 25.359375 Z M 18.773438 23.679688 C 17.695312 23.679688 16.746094 23.40625 15.972656 22.875 C 14.625 21.957031 13.820312 20.46875 13.820312 18.890625 C 13.820312 18.636719 14.019531 18.4375 14.273438 18.4375 C 14.527344 18.4375 14.722656 18.636719 14.722656 18.890625 C 14.722656 20.171875 15.375 21.375 16.476562 22.117188 C 17.117188 22.554688 17.867188 22.765625 18.773438 22.765625 C 18.988281 22.765625 19.347656 22.734375 19.710938 22.671875 C 19.957031 22.625 20.191406 22.789062 20.234375 23.046875 C 20.28125 23.289062 20.117188 23.523438 19.863281 23.570312 C 19.347656 23.671875 18.898438 23.679688 18.773438 23.679688 Z M 16.957031 25.546875 C 16.917969 25.546875 16.875 25.539062 16.839844 25.53125 C 15.402344 25.132812 14.464844 24.59375 13.476562 23.625 C 12.214844 22.363281 11.519531 20.6875 11.519531 18.890625 C 11.519531 17.421875 12.765625 16.222656 14.300781 16.222656 C 15.835938 16.222656 17.082031 17.421875 17.082031 18.890625 C 17.082031 19.859375 17.921875 20.648438 18.960938 20.648438 C 20 20.648438 20.839844 19.859375 20.839844 18.890625 C 20.839844 15.46875 17.902344 12.695312 14.292969 12.695312 C 11.722656 12.695312 9.375 14.128906 8.320312 16.351562 C 7.96875 17.085938 7.785156 17.945312 7.785156 18.890625 C 7.785156 19.597656 7.851562 20.710938 8.390625 22.164062 C 8.484375 22.398438 8.367188 22.664062 8.128906 22.742188 C 7.894531 22.835938 7.632812 22.710938 7.550781 22.484375 C 7.109375 21.292969 6.894531 20.117188 6.894531 18.890625 C 6.894531 17.804688 7.101562 16.8125 7.507812 15.953125 C 8.710938 13.421875 11.375 11.78125 14.292969 11.78125 C 18.402344 11.78125 21.746094 14.960938 21.746094 18.882812 C 21.746094 20.351562 20.496094 21.546875 18.960938 21.546875 C 17.425781 21.546875 16.179688 20.351562 16.179688 18.882812 C 16.179688 17.910156 15.339844 17.121094 14.300781 17.121094 C 13.261719 17.121094 12.421875 17.910156 12.421875 18.882812 C 12.421875 20.429688 13.019531 21.882812 14.109375 22.972656 C 14.96875 23.824219 15.792969 24.296875 17.066406 24.648438 C 17.308594 24.710938 17.445312 24.96875 17.382812 25.203125 C 17.335938 25.414062 17.144531 25.546875 16.957031 25.546875 Z M 16.957031 25.546875 "/>
<path style=" stroke:none;fill-rule:nonzero;fill:rgb(8.235294%,13.72549%,22.745098%);fill-opacity:1;" d="M 45.464844 9.804688 L 39.933594 9.804688 L 39.933594 25.117188 L 36.875 25.117188 L 36.875 9.804688 L 31.394531 9.804688 L 31.394531 7.308594 L 45.464844 7.308594 Z M 45.464844 9.804688 "/>
<path style=" stroke:none;fill-rule:nonzero;fill:rgb(8.235294%,13.72549%,22.745098%);fill-opacity:1;" d="M 53.488281 14.597656 C 53.097656 14.53125 52.695312 14.5 52.285156 14.5 C 50.925781 14.5 50.011719 15.023438 49.539062 16.066406 L 49.539062 25.117188 L 46.582031 25.117188 L 46.582031 11.882812 L 49.410156 11.882812 L 49.480469 13.363281 C 50.195312 12.210938 51.1875 11.640625 52.453125 11.640625 C 52.875 11.640625 53.226562 11.695312 53.5 11.8125 Z M 53.488281 14.597656 "/>
<path style=" stroke:none;fill-rule:nonzero;fill:rgb(8.235294%,13.72549%,22.745098%);fill-opacity:1;" d="M 63.21875 23.820312 C 62.351562 24.851562 61.113281 25.363281 59.515625 25.363281 C 58.085938 25.363281 57.003906 24.945312 56.269531 24.101562 C 55.535156 23.265625 55.167969 22.046875 55.167969 20.457031 L 55.167969 11.882812 L 58.128906 11.882812 L 58.128906 20.421875 C 58.128906 22.101562 58.820312 22.941406 60.210938 22.941406 C 61.648438 22.941406 62.617188 22.421875 63.121094 21.386719 L 63.121094 11.882812 L 66.082031 11.882812 L 66.082031 25.117188 L 63.292969 25.117188 Z M 63.21875 23.820312 "/>
<path style=" stroke:none;fill-rule:nonzero;fill:rgb(8.235294%,13.72549%,22.745098%);fill-opacity:1;" d="M 76.363281 21.523438 C 76.363281 20.992188 76.144531 20.585938 75.710938 20.3125 C 75.277344 20.03125 74.554688 19.789062 73.546875 19.578125 C 72.542969 19.367188 71.699219 19.09375 71.027344 18.769531 C 69.546875 18.054688 68.808594 17.011719 68.808594 15.648438 C 68.808594 14.507812 69.289062 13.554688 70.246094 12.789062 C 71.207031 12.023438 72.421875 11.640625 73.902344 11.640625 C 75.476562 11.640625 76.75 12.03125 77.71875 12.8125 C 78.691406 13.59375 79.175781 14.609375 79.175781 15.859375 L 76.214844 15.859375 C 76.214844 15.289062 76.003906 14.8125 75.582031 14.433594 C 75.160156 14.054688 74.597656 13.867188 73.902344 13.867188 C 73.25 13.867188 72.722656 14.015625 72.3125 14.316406 C 71.902344 14.617188 71.695312 15.023438 71.695312 15.527344 C 71.695312 15.984375 71.886719 16.339844 72.269531 16.59375 C 72.652344 16.84375 73.421875 17.101562 74.582031 17.359375 C 75.742188 17.613281 76.65625 17.921875 77.316406 18.273438 C 77.980469 18.628906 78.472656 19.054688 78.792969 19.554688 C 79.113281 20.050781 79.273438 20.652344 79.273438 21.363281 C 79.273438 22.554688 78.78125 23.515625 77.800781 24.257812 C 76.816406 24.992188 75.53125 25.363281 73.9375 25.363281 C 72.855469 25.363281 71.894531 25.164062 71.050781 24.773438 C 70.203125 24.382812 69.546875 23.84375 69.078125 23.160156 C 68.605469 22.476562 68.371094 21.738281 68.371094 20.945312 L 71.246094 20.945312 C 71.285156 21.648438 71.550781 22.1875 72.035156 22.570312 C 72.523438 22.945312 73.167969 23.136719 73.976562 23.136719 C 74.753906 23.136719 75.347656 22.988281 75.75 22.6875 C 76.160156 22.390625 76.363281 22.003906 76.363281 21.523438 Z M 76.363281 21.523438 "/>
<path style=" stroke:none;fill-rule:nonzero;fill:rgb(8.235294%,13.72549%,22.745098%);fill-opacity:1;" d="M 85.433594 8.664062 L 85.433594 11.882812 L 87.761719 11.882812 L 87.761719 14.085938 L 85.433594 14.085938 L 85.433594 21.472656 C 85.433594 21.976562 85.535156 22.34375 85.734375 22.570312 C 85.929688 22.789062 86.289062 22.90625 86.800781 22.90625 C 87.140625 22.90625 87.484375 22.863281 87.835938 22.78125 L 87.835938 25.082031 C 87.160156 25.269531 86.511719 25.363281 85.882812 25.363281 C 83.613281 25.363281 82.476562 24.101562 82.476562 21.582031 L 82.476562 14.085938 L 80.304688 14.085938 L 80.304688 11.882812 L 82.476562 11.882812 L 82.476562 8.664062 Z M 85.433594 8.664062 "/>
<path style=" stroke:none;fill-rule:nonzero;fill:rgb(8.235294%,13.72549%,22.745098%);fill-opacity:1;" d="M 103.71875 19.320312 C 103.539062 21.21875 102.839844 22.703125 101.625 23.765625 C 100.402344 24.828125 98.785156 25.363281 96.761719 25.363281 C 95.347656 25.363281 94.105469 25.023438 93.027344 24.351562 C 91.949219 23.679688 91.121094 22.726562 90.535156 21.484375 C 89.953125 20.246094 89.648438 18.804688 89.621094 17.167969 L 89.621094 15.503906 C 89.621094 13.824219 89.917969 12.34375 90.511719 11.0625 C 91.105469 9.78125 91.953125 8.796875 93.066406 8.101562 C 94.171875 7.410156 95.453125 7.0625 96.90625 7.0625 C 98.867188 7.0625 100.441406 7.59375 101.636719 8.660156 C 102.828125 9.726562 103.523438 11.230469 103.71875 13.179688 L 100.648438 13.179688 C 100.5 11.898438 100.132812 10.976562 99.53125 10.40625 C 98.9375 9.84375 98.0625 9.558594 96.910156 9.558594 C 95.570312 9.558594 94.539062 10.050781 93.820312 11.03125 C 93.101562 12.015625 92.734375 13.460938 92.71875 15.359375 L 92.71875 16.941406 C 92.71875 18.867188 93.0625 20.335938 93.746094 21.351562 C 94.433594 22.359375 95.4375 22.867188 96.761719 22.867188 C 97.972656 22.867188 98.882812 22.59375 99.492188 22.046875 C 100.101562 21.5 100.484375 20.59375 100.648438 19.320312 Z M 103.71875 19.320312 "/>
<path style=" stroke:none;fill-rule:nonzero;fill:rgb(8.235294%,13.72549%,22.745098%);fill-opacity:1;" d="M 111.867188 25.363281 C 109.988281 25.363281 108.46875 24.769531 107.304688 23.582031 C 106.136719 22.398438 105.554688 20.816406 105.554688 18.84375 L 105.554688 18.476562 C 105.554688 17.15625 105.808594 15.976562 106.316406 14.9375 C 106.824219 13.894531 107.535156 13.085938 108.453125 12.507812 C 109.371094 11.929688 110.394531 11.640625 111.523438 11.640625 C 113.320312 11.640625 114.707031 12.210938 115.683594 13.363281 C 116.664062 14.515625 117.152344 16.140625 117.152344 18.242188 L 117.152344 19.441406 L 108.539062 19.441406 C 108.628906 20.535156 108.992188 21.398438 109.628906 22.035156 C 110.269531 22.671875 111.070312 22.992188 112.035156 22.992188 C 113.390625 22.992188 114.496094 22.4375 115.347656 21.335938 L 116.945312 22.867188 C 116.417969 23.65625 115.710938 24.273438 114.832031 24.710938 C 113.949219 25.144531 112.960938 25.363281 111.867188 25.363281 Z M 111.511719 14.023438 C 110.699219 14.023438 110.042969 14.308594 109.542969 14.878906 C 109.046875 15.453125 108.726562 16.246094 108.589844 17.265625 L 114.226562 17.265625 L 114.226562 17.046875 C 114.164062 16.050781 113.898438 15.296875 113.4375 14.789062 C 112.972656 14.28125 112.332031 14.023438 111.511719 14.023438 Z M 111.511719 14.023438 "/>
<path style=" stroke:none;fill-rule:nonzero;fill:rgb(8.235294%,13.72549%,22.745098%);fill-opacity:1;" d="M 126.226562 14.597656 C 125.835938 14.53125 125.433594 14.5 125.019531 14.5 C 123.664062 14.5 122.75 15.023438 122.277344 16.066406 L 122.277344 25.117188 L 119.316406 25.117188 L 119.316406 11.882812 L 122.144531 11.882812 L 122.21875 13.363281 C 122.933594 12.210938 123.921875 11.640625 125.1875 11.640625 C 125.613281 11.640625 125.960938 11.695312 126.238281 11.8125 Z M 126.226562 14.597656 "/>
<path style=" stroke:none;fill-rule:nonzero;fill:rgb(8.235294%,13.72549%,22.745098%);fill-opacity:1;" d="M 132.289062 8.664062 L 132.289062 11.882812 L 134.617188 11.882812 L 134.617188 14.085938 L 132.289062 14.085938 L 132.289062 21.472656 C 132.289062 21.976562 132.390625 22.34375 132.585938 22.570312 C 132.785156 22.789062 133.140625 22.90625 133.65625 22.90625 C 133.992188 22.90625 134.339844 22.863281 134.6875 22.78125 L 134.6875 25.082031 C 134.015625 25.269531 133.367188 25.363281 132.738281 25.363281 C 130.464844 25.363281 129.328125 24.101562 129.328125 21.582031 L 129.328125 14.085938 L 127.160156 14.085938 L 127.160156 11.882812 L 129.328125 11.882812 L 129.328125 8.664062 Z M 132.289062 8.664062 "/>
<path style=" stroke:none;fill-rule:nonzero;fill:rgb(8.235294%,13.72549%,22.745098%);fill-opacity:1;" d="M 144.140625 21.523438 C 144.140625 20.992188 143.921875 20.585938 143.488281 20.3125 C 143.054688 20.03125 142.332031 19.789062 141.324219 19.578125 C 140.320312 19.367188 139.480469 19.09375 138.804688 18.769531 C 137.324219 18.054688 136.585938 17.011719 136.585938 15.648438 C 136.585938 14.507812 137.066406 13.554688 138.023438 12.789062 C 138.984375 12.023438 140.199219 11.640625 141.679688 11.640625 C 143.253906 11.640625 144.527344 12.03125 145.5 12.8125 C 146.46875 13.59375 146.957031 14.609375 146.957031 15.859375 L 143.996094 15.859375 C 143.996094 15.289062 143.785156 14.8125 143.359375 14.433594 C 142.9375 14.054688 142.378906 13.867188 141.679688 13.867188 C 141.03125 13.867188 140.5 14.015625 140.089844 14.316406 C 139.679688 14.617188 139.476562 15.023438 139.476562 15.527344 C 139.476562 15.984375 139.667969 16.339844 140.046875 16.59375 C 140.429688 16.84375 141.199219 17.101562 142.363281 17.359375 C 143.523438 17.613281 144.433594 17.921875 145.097656 18.273438 C 145.757812 18.628906 146.25 19.054688 146.570312 19.554688 C 146.890625 20.050781 147.050781 20.652344 147.050781 21.363281 C 147.050781 22.554688 146.558594 23.515625 145.578125 24.257812 C 144.59375 24.992188 143.308594 25.363281 141.714844 25.363281 C 140.636719 25.363281 139.675781 25.164062 138.828125 24.773438 C 137.984375 24.382812 137.324219 23.84375 136.855469 23.160156 C 136.382812 22.476562 136.148438 21.738281 136.148438 20.945312 L 139.023438 20.945312 C 139.0625 21.648438 139.328125 22.1875 139.816406 22.570312 C 140.300781 22.945312 140.949219 23.136719 141.753906 23.136719 C 142.53125 23.136719 143.125 22.988281 143.53125 22.6875 C 143.9375 22.390625 144.140625 22.003906 144.140625 21.523438 Z M 144.140625 21.523438 "/>
</g>
</svg>